#define cross_width  9
#define cross_height 9
static unsigned char cross_bits[] = {
 0xff,0xff,0x01,0xff,0x45,0xff,0x29,0xff,0x11,0xff,0x29,0xff,
 0x45,0xff,0x01,0xff,0xff,0xff};
