#define hamburger_width  9
#define hamburger_height 9
static unsigned char hamburger_bits[] = {
 0xff,0xff,0x01,0xff,0x7d,0xff,0x01,0xff,0x7d,0xff,0x01,0xff,
 0x7d,0xff,0x01,0xff,0xff,0xff};
