#define resize_width  9
#define resize_height 9
static unsigned char resize_bits[] = {
 0xff,0xff,0x01,0xff,0x1d,0xff,0x0d,0xff,0x55,0xff,0x61,0xff,
 0x71,0xff,0x01,0xff,0xff,0xff};
