#define right_arrow_width  9
#define right_arrow_height 9
static unsigned char right_arrow_bits[] = {
 0x00,0xfe,0x10,0xfe,0x30,0xfe,0x70,0xfe,0xf0,0xfe,0x70,0xfe,
 0x30,0xfe,0x10,0xfe,0x00,0xfe};
